v 0.000000 0.806318 0.000000
v -0.738555 0.632895 -0.646169
v 1.740934 0.000000 0.000000
v 0.624526 -0.200657 -4.500093
v -0.738555 0.632895 -2.083886
v 0.000000 0.480014 -4.050149
v 0.738555 0.632895 -0.646169
v 0.855396 0.480014 -4.050149
v 0.624526 0.200657 -4.500093
v 0.738555 0.632895 -2.083886
v 1.024654 0.806318 0.000000
v 0.000000 0.000000 -4.050149
v 0.346737 -0.200657 -4.500093
v 0.855396 0.000000 -4.050149
v 1.111666 1.000000 0.000000
v 0.346737 0.200657 -4.500093
v 2.000000 0.000000 0.000000
v 0.000000 1.000000 0.000000
v -0.624526 -0.200657 -4.500093
v 0.000000 0.806318 -0.160623
v -0.624526 0.200657 -4.500093
v 0.000000 0.000000 -0.160623
v 1.740934 0.000000 -0.160623
v 1.024654 0.806318 -0.160623
v -0.346737 -0.200657 -4.500093
v -1.740934 0.000000 0.000000
v -0.346737 0.200657 -4.500093
v -0.855396 0.480014 -4.050149
v -1.024654 0.806318 0.000000
v -0.855396 0.000000 -4.050149
v -1.111666 1.000000 0.000000
v -2.000000 0.000000 0.000000
v -1.740934 0.000000 -0.160623
v -1.024654 0.806318 -0.160623
v 0.000000 -0.806318 0.000000
v 0.000000 -0.480014 -4.050149
v 0.855396 -0.480014 -4.050149
v 1.024654 -0.806318 0.000000
v 1.111666 -1.000000 0.000000
v 0.000000 -1.000000 0.000000
v 0.000000 -0.806318 -0.160623
v 1.024654 -0.806318 -0.160623
v -0.855396 -0.480014 -4.050149
v -1.024654 -0.806318 0.000000
v -1.111666 -1.000000 0.000000
v -1.024654 -0.806318 -0.160623
v 0.624526 0.200657 -4.050149
v 0.346737 0.200657 -4.050149
v 0.346737 0.000000 -4.050149
v 0.624526 0.000000 -4.050149
v -0.624526 0.000000 -4.050149
v -0.346737 0.200657 -4.050149
v -0.346737 0.000000 -4.050149
v -0.624526 0.200657 -4.050149
v 0.346737 -0.200657 -4.050149
v 0.624526 -0.200657 -4.050149
v -0.624526 -0.200657 -4.050149
v -0.346737 -0.200657 -4.050149
v 0.738555 0.917040 -0.646169
v 0.738555 0.732456 -2.083886
v 0.000000 0.917040 -0.646169
v 0.000000 0.732456 -2.083886
v -0.738555 0.917040 -0.646169
v -0.738555 0.732456 -2.083886
vn -0.0000 0.9919 -0.1273
vn 0.7411 0.6584 -0.1314
vn -0.0000 -0.0000 -1.0000
vn 0.9623 -0.0000 -0.2720
vn -0.0000 -0.0000 1.0000
vn -0.0000 -1.0000 -0.0000
vn -0.7476 -0.6641 -0.0000
vn -0.7411 0.6584 -0.1314
vn -0.9623 -0.0000 -0.2720
vn 0.7476 -0.6641 -0.0000
vn -0.0000 -0.9919 -0.1273
vn 0.7411 -0.6584 -0.1314
vn -0.0000 1.0000 -0.0000
vn -0.7476 0.6641 -0.0000
vn -0.7411 -0.6584 -0.1314
vn 0.7476 0.6641 -0.0000
vn 1.0000 -0.0000 -0.0000
vn -1.0000 -0.0000 -0.0000
vt 0.000000 0.159542
vt 0.000000 0.000000
vt 0.555833 0.000000
vt 1.000000 1.000000
vt 0.000000 1.000000
vt 0.000000 0.514521
vt 0.592193 0.514521
vt 0.430478 0.159542
vt 1.000000 0.000000
vt 0.405353 1.000000
vt 0.730102 1.000000
vt 0.730102 1.000000
vt 0.512327 0.000000
vt 0.870467 0.000000
vt 0.730102 1.000000
vt 0.405353 1.000000
vt 0.500000 0.170927
vt 0.375000 0.170927
vt 0.375000 0.250000
vt 0.625000 0.250000
vt 0.625000 0.170927
vt 0.375000 0.500000
vt 0.625000 0.500000
vt 0.625000 0.579073
vt 0.375000 0.579073
vt 0.500000 0.579073
vt 0.125000 0.500000
vt 0.125000 0.579073
vt 0.875000 0.579073
vt 0.875000 0.500000
vt 0.478816 0.000000
vt 0.375000 0.000000
vt 0.411376 0.250000
vt 0.411376 0.500000
vt 0.411376 0.375000
vt 0.375000 0.750000
vt 0.478816 0.750000
vt 0.375000 1.000000
vt 0.478816 1.000000
vt 0.478816 0.875000
vt 0.125000 0.750000
s 0
f 61/1/1 18/2/1 15/3/1 8/4/1 6/5/1 62/6/1 60/7/1 59/8/1
f 8/4/2 15/3/2 17/9/2
f 48/10/3 49/10/3 12/5/3 6/5/3 8/4/3 14/4/3 50/11/3 47/12/3
f 8/4/4 17/9/4 14/4/4
f 11/13/5 3/14/5 17/9/5 15/3/5
f 1/2/5 11/13/5 15/3/5 18/2/5
f 22/2/5 23/14/5 24/13/5 20/2/5
f 11/13/6 1/2/6 20/2/6 24/13/6
f 3/14/7 11/13/7 24/13/7 23/14/7
f 62/6/1 6/5/1 28/4/1 31/3/1 18/2/1 61/1/1 63/8/1 64/7/1
f 28/4/8 32/9/8 31/3/8
f 51/15/3 30/4/3 28/4/3 6/5/3 12/5/3 53/16/3 52/10/3 54/12/3
f 28/4/9 30/4/9 32/9/9
f 29/13/5 31/3/5 32/9/5 26/14/5
f 1/2/5 18/2/5 31/3/5 29/13/5
f 22/2/5 20/2/5 34/13/5 33/14/5
f 29/13/6 34/13/6 20/2/6 1/2/6
f 26/14/10 33/14/10 34/13/10 29/13/10
f 40/2/11 36/5/11 37/4/11 39/3/11
f 37/4/12 17/9/12 39/3/12
f 56/12/3 50/15/3 14/4/3 37/4/3 36/5/3 12/5/3 49/16/3 55/10/3
f 37/4/4 14/4/4 17/9/4
f 38/13/5 39/3/5 17/9/5 3/14/5
f 35/2/5 40/2/5 39/3/5 38/13/5
f 22/2/5 41/2/5 42/13/5 23/14/5
f 38/13/13 42/13/13 41/2/13 35/2/13
f 3/14/14 23/14/14 42/13/14 38/13/14
f 40/2/11 45/3/11 43/4/11 36/5/11
f 43/4/15 45/3/15 32/9/15
f 53/10/3 12/5/3 36/5/3 43/4/3 30/4/3 51/11/3 57/12/3 58/10/3
f 43/4/9 32/9/9 30/4/9
f 44/13/5 26/14/5 32/9/5 45/3/5
f 35/2/5 44/13/5 45/3/5 40/2/5
f 22/2/5 33/14/5 46/13/5 41/2/5
f 44/13/13 35/2/13 41/2/13 46/13/13
f 26/14/16 44/13/16 46/13/16 33/14/16
f 50/17/17 56/18/17 4/19/17 9/20/17 47/21/17
f 4/19/3 13/22/3 16/23/3 9/20/3
f 48/24/18 16/23/18 13/22/18 55/25/18 49/26/18
f 13/22/6 4/27/6 56/28/6 55/25/6
f 47/29/13 9/30/13 16/23/13 48/24/13
f 51/17/18 54/21/18 21/20/18 19/19/18 57/18/18
f 19/19/3 21/20/3 27/23/3 25/22/3
f 53/26/17 58/25/17 25/22/17 27/23/17 52/24/17
f 57/28/6 19/27/6 25/22/6 58/25/6
f 52/24/13 27/23/13 21/30/13 54/29/13
f 63/31/17 2/32/17 5/19/17 64/33/17
f 64/33/5 5/19/5 10/22/5 60/34/5 62/35/5
f 10/22/18 7/36/18 59/37/18 60/34/18
f 7/36/3 2/38/3 63/39/3 61/40/3 59/37/3
f 5/27/13 2/41/13 7/36/13 10/22/13
